<mxfile host="Electron" modified="2024-04-08T11:00:04.816Z" agent="Mozilla/5.0 (Windows NT 10.0; Win64; x64) AppleWebKit/537.36 (KHTML, like Gecko) draw.io/22.1.16 Chrome/120.0.6099.109 Electron/28.1.0 Safari/537.36" etag="Vfd7J36FbSFEQB0kRKn0" version="22.1.16" type="device">
  <diagram name="Page-1" id="2YBvvXClWsGukQMizWep">
    <mxGraphModel dx="1635" dy="731" grid="1" gridSize="10" guides="1" tooltips="1" connect="1" arrows="1" fold="1" page="0" pageScale="1" pageWidth="827" pageHeight="1169" math="0" shadow="0">
      <root>
        <mxCell id="0" />
        <mxCell id="1" parent="0" />
        <mxCell id="T0bKJDukILclkHPOjCPq-33" value="" style="endArrow=classic;html=1;rounded=0;" parent="1" edge="1">
          <mxGeometry width="50" height="50" relative="1" as="geometry">
            <mxPoint x="416" y="720" as="sourcePoint" />
            <mxPoint x="939" y="720" as="targetPoint" />
          </mxGeometry>
        </mxCell>
        <mxCell id="T0bKJDukILclkHPOjCPq-34" value="" style="endArrow=open;dashed=1;html=1;dashPattern=1 3;strokeWidth=2;rounded=0;endFill=0;exitX=0.459;exitY=0.98;exitDx=0;exitDy=0;exitPerimeter=0;" parent="1" source="T0bKJDukILclkHPOjCPq-35" edge="1">
          <mxGeometry width="50" height="50" relative="1" as="geometry">
            <mxPoint x="1184.25" y="790" as="sourcePoint" />
            <mxPoint x="119" y="790" as="targetPoint" />
          </mxGeometry>
        </mxCell>
        <mxCell id="T0bKJDukILclkHPOjCPq-35" value="CashPayment" style="shape=umlLifeline;perimeter=lifelinePerimeter;whiteSpace=wrap;html=1;container=0;dropTarget=0;collapsible=0;recursiveResize=0;outlineConnect=0;portConstraint=eastwest;newEdgeStyle={&quot;edgeStyle&quot;:&quot;elbowEdgeStyle&quot;,&quot;elbow&quot;:&quot;vertical&quot;,&quot;curved&quot;:0,&quot;rounded&quot;:0};fillColor=#dae8fc;strokeColor=#6c8ebf;" parent="1" vertex="1">
          <mxGeometry x="899" y="200" width="100" height="601" as="geometry" />
        </mxCell>
        <mxCell id="T0bKJDukILclkHPOjCPq-36" value="" style="html=1;points=[];perimeter=orthogonalPerimeter;outlineConnect=0;targetShapes=umlLifeline;portConstraint=eastwest;newEdgeStyle={&quot;edgeStyle&quot;:&quot;elbowEdgeStyle&quot;,&quot;elbow&quot;:&quot;vertical&quot;,&quot;curved&quot;:0,&quot;rounded&quot;:0};" parent="T0bKJDukILclkHPOjCPq-35" vertex="1">
          <mxGeometry x="45" y="450" width="10" height="150" as="geometry" />
        </mxCell>
        <mxCell id="T0bKJDukILclkHPOjCPq-37" value="cashPayment()" style="text;html=1;align=center;verticalAlign=middle;resizable=0;points=[];autosize=1;strokeColor=none;fillColor=none;" parent="1" vertex="1">
          <mxGeometry x="475" y="694" width="100" height="30" as="geometry" />
        </mxCell>
        <mxCell id="T0bKJDukILclkHPOjCPq-38" value="return" style="text;html=1;align=center;verticalAlign=middle;resizable=0;points=[];autosize=1;strokeColor=none;fillColor=none;" parent="1" vertex="1">
          <mxGeometry x="190" y="762" width="50" height="30" as="geometry" />
        </mxCell>
        <mxCell id="R0Ea8_HKn-mQd7oRBbt7-1" value="SaleProcess&lt;br&gt;Controller" style="shape=umlLifeline;perimeter=lifelinePerimeter;whiteSpace=wrap;html=1;container=0;dropTarget=0;collapsible=0;recursiveResize=0;outlineConnect=0;portConstraint=eastwest;newEdgeStyle={&quot;edgeStyle&quot;:&quot;elbowEdgeStyle&quot;,&quot;elbow&quot;:&quot;vertical&quot;,&quot;curved&quot;:0,&quot;rounded&quot;:0};fillColor=#dae8fc;strokeColor=#6c8ebf;" parent="1" vertex="1">
          <mxGeometry x="360" y="199" width="100" height="601" as="geometry" />
        </mxCell>
        <mxCell id="R0Ea8_HKn-mQd7oRBbt7-2" value="" style="html=1;points=[];perimeter=orthogonalPerimeter;outlineConnect=0;targetShapes=umlLifeline;portConstraint=eastwest;newEdgeStyle={&quot;edgeStyle&quot;:&quot;elbowEdgeStyle&quot;,&quot;elbow&quot;:&quot;vertical&quot;,&quot;curved&quot;:0,&quot;rounded&quot;:0};" parent="R0Ea8_HKn-mQd7oRBbt7-1" vertex="1">
          <mxGeometry x="45" y="70" width="10" height="490" as="geometry" />
        </mxCell>
        <mxCell id="R0Ea8_HKn-mQd7oRBbt7-3" value="Loop" style="shape=umlFrame;whiteSpace=wrap;html=1;pointerEvents=0;fillColor=#FFFFFF;shadow=0;fillStyle=auto;gradientColor=none;swimlaneFillColor=default;" parent="1" vertex="1">
          <mxGeometry x="416" y="305.5" width="283" height="264.5" as="geometry" />
        </mxCell>
        <mxCell id="R0Ea8_HKn-mQd7oRBbt7-4" value="" style="endArrow=classic;html=1;rounded=0;" parent="1" edge="1">
          <mxGeometry width="50" height="50" relative="1" as="geometry">
            <mxPoint x="110" y="320" as="sourcePoint" />
            <mxPoint x="260" y="320" as="targetPoint" />
          </mxGeometry>
        </mxCell>
        <mxCell id="R0Ea8_HKn-mQd7oRBbt7-5" value="" style="endArrow=classic;html=1;rounded=0;" parent="1" edge="1">
          <mxGeometry width="50" height="50" relative="1" as="geometry">
            <mxPoint x="415" y="342" as="sourcePoint" />
            <mxPoint x="420" y="362" as="targetPoint" />
            <Array as="points">
              <mxPoint x="445" y="342" />
              <mxPoint x="465" y="342" />
              <mxPoint x="465" y="362" />
              <mxPoint x="450" y="362" />
            </Array>
          </mxGeometry>
        </mxCell>
        <mxCell id="R0Ea8_HKn-mQd7oRBbt7-6" value="addTickets(Ticket)" style="text;html=1;align=center;verticalAlign=middle;resizable=0;points=[];autosize=1;strokeColor=none;fillColor=none;" parent="1" vertex="1">
          <mxGeometry x="458" y="337" width="120" height="30" as="geometry" />
        </mxCell>
        <mxCell id="R0Ea8_HKn-mQd7oRBbt7-7" value="" style="endArrow=classic;html=1;rounded=0;" parent="1" edge="1">
          <mxGeometry width="50" height="50" relative="1" as="geometry">
            <mxPoint x="416" y="630" as="sourcePoint" />
            <mxPoint x="779" y="630" as="targetPoint" />
            <Array as="points">
              <mxPoint x="582" y="630" />
            </Array>
          </mxGeometry>
        </mxCell>
        <mxCell id="R0Ea8_HKn-mQd7oRBbt7-8" value="cardPayment()" style="text;html=1;align=center;verticalAlign=middle;resizable=0;points=[];autosize=1;strokeColor=none;fillColor=none;" parent="1" vertex="1">
          <mxGeometry x="475" y="607" width="100" height="30" as="geometry" />
        </mxCell>
        <mxCell id="R0Ea8_HKn-mQd7oRBbt7-9" value="" style="endArrow=open;dashed=1;html=1;dashPattern=1 3;strokeWidth=2;rounded=0;endFill=0;" parent="1" source="R0Ea8_HKn-mQd7oRBbt7-12" edge="1">
          <mxGeometry width="50" height="50" relative="1" as="geometry">
            <mxPoint x="1040" y="669" as="sourcePoint" />
            <mxPoint x="115" y="669" as="targetPoint" />
          </mxGeometry>
        </mxCell>
        <mxCell id="R0Ea8_HKn-mQd7oRBbt7-10" value="return" style="text;html=1;align=center;verticalAlign=middle;resizable=0;points=[];autosize=1;strokeColor=none;fillColor=none;" parent="1" vertex="1">
          <mxGeometry x="190" y="639" width="50" height="30" as="geometry" />
        </mxCell>
        <mxCell id="R0Ea8_HKn-mQd7oRBbt7-11" value="CardPayment" style="shape=umlLifeline;perimeter=lifelinePerimeter;whiteSpace=wrap;html=1;container=0;dropTarget=0;collapsible=0;recursiveResize=0;outlineConnect=0;portConstraint=eastwest;newEdgeStyle={&quot;edgeStyle&quot;:&quot;elbowEdgeStyle&quot;,&quot;elbow&quot;:&quot;vertical&quot;,&quot;curved&quot;:0,&quot;rounded&quot;:0};fillColor=#dae8fc;strokeColor=#6c8ebf;" parent="1" vertex="1">
          <mxGeometry x="739" y="199" width="100" height="600" as="geometry" />
        </mxCell>
        <mxCell id="R0Ea8_HKn-mQd7oRBbt7-12" value="" style="html=1;points=[];perimeter=orthogonalPerimeter;outlineConnect=0;targetShapes=umlLifeline;portConstraint=eastwest;newEdgeStyle={&quot;edgeStyle&quot;:&quot;elbowEdgeStyle&quot;,&quot;elbow&quot;:&quot;vertical&quot;,&quot;curved&quot;:0,&quot;rounded&quot;:0};" parent="R0Ea8_HKn-mQd7oRBbt7-11" vertex="1">
          <mxGeometry x="45" y="380" width="10" height="100" as="geometry" />
        </mxCell>
        <mxCell id="R0Ea8_HKn-mQd7oRBbt7-13" value="" style="endArrow=classic;html=1;rounded=0;" parent="1" edge="1">
          <mxGeometry width="50" height="50" relative="1" as="geometry">
            <mxPoint x="416" y="540" as="sourcePoint" />
            <mxPoint x="421" y="560" as="targetPoint" />
            <Array as="points">
              <mxPoint x="446" y="540" />
              <mxPoint x="466" y="540" />
              <mxPoint x="466" y="560" />
              <mxPoint x="451" y="560" />
            </Array>
          </mxGeometry>
        </mxCell>
        <mxCell id="R0Ea8_HKn-mQd7oRBbt7-14" value="updateTotal()" style="text;html=1;align=center;verticalAlign=middle;resizable=0;points=[];autosize=1;strokeColor=none;fillColor=none;" parent="1" vertex="1">
          <mxGeometry x="463" y="534" width="90" height="30" as="geometry" />
        </mxCell>
        <mxCell id="R0Ea8_HKn-mQd7oRBbt7-15" value="startSaleProcess()" style="text;html=1;align=center;verticalAlign=middle;resizable=0;points=[];autosize=1;strokeColor=none;fillColor=none;" parent="1" vertex="1">
          <mxGeometry x="128" y="295" width="120" height="30" as="geometry" />
        </mxCell>
        <mxCell id="R0Ea8_HKn-mQd7oRBbt7-16" value="Cinema" style="shape=umlLifeline;perimeter=lifelinePerimeter;whiteSpace=wrap;html=1;container=0;dropTarget=0;collapsible=0;recursiveResize=0;outlineConnect=0;portConstraint=eastwest;newEdgeStyle={&quot;edgeStyle&quot;:&quot;elbowEdgeStyle&quot;,&quot;elbow&quot;:&quot;vertical&quot;,&quot;curved&quot;:0,&quot;rounded&quot;:0};fillColor=#dae8fc;strokeColor=#6c8ebf;" parent="1" vertex="1">
          <mxGeometry x="580" y="200" width="100" height="600" as="geometry" />
        </mxCell>
        <mxCell id="R0Ea8_HKn-mQd7oRBbt7-17" value="" style="html=1;points=[];perimeter=orthogonalPerimeter;outlineConnect=0;targetShapes=umlLifeline;portConstraint=eastwest;newEdgeStyle={&quot;edgeStyle&quot;:&quot;elbowEdgeStyle&quot;,&quot;elbow&quot;:&quot;vertical&quot;,&quot;curved&quot;:0,&quot;rounded&quot;:0};" parent="R0Ea8_HKn-mQd7oRBbt7-16" vertex="1">
          <mxGeometry x="45" y="160" width="10" height="180" as="geometry" />
        </mxCell>
        <mxCell id="R0Ea8_HKn-mQd7oRBbt7-18" value="Client" style="shape=umlLifeline;perimeter=lifelinePerimeter;whiteSpace=wrap;html=1;container=0;dropTarget=0;collapsible=0;recursiveResize=0;outlineConnect=0;portConstraint=eastwest;newEdgeStyle={&quot;edgeStyle&quot;:&quot;elbowEdgeStyle&quot;,&quot;elbow&quot;:&quot;vertical&quot;,&quot;curved&quot;:0,&quot;rounded&quot;:0};fillColor=#dae8fc;strokeColor=#6c8ebf;" parent="1" vertex="1">
          <mxGeometry x="60" y="200" width="100" height="600" as="geometry" />
        </mxCell>
        <mxCell id="R0Ea8_HKn-mQd7oRBbt7-19" value="" style="html=1;points=[];perimeter=orthogonalPerimeter;outlineConnect=0;targetShapes=umlLifeline;portConstraint=eastwest;newEdgeStyle={&quot;edgeStyle&quot;:&quot;elbowEdgeStyle&quot;,&quot;elbow&quot;:&quot;vertical&quot;,&quot;curved&quot;:0,&quot;rounded&quot;:0};" parent="R0Ea8_HKn-mQd7oRBbt7-18" vertex="1">
          <mxGeometry x="45" y="70" width="10" height="530" as="geometry" />
        </mxCell>
        <mxCell id="R0Ea8_HKn-mQd7oRBbt7-20" value="SaleProcessView" style="shape=umlLifeline;perimeter=lifelinePerimeter;whiteSpace=wrap;html=1;container=1;dropTarget=0;collapsible=0;recursiveResize=0;outlineConnect=0;portConstraint=eastwest;newEdgeStyle={&quot;curved&quot;:0,&quot;rounded&quot;:0};fillColor=#dae8fc;strokeColor=#6c8ebf;" parent="1" vertex="1">
          <mxGeometry x="220" y="200" width="100" height="600" as="geometry" />
        </mxCell>
        <mxCell id="R0Ea8_HKn-mQd7oRBbt7-21" value="" style="html=1;points=[[0,0,0,0,5],[0,1,0,0,-5],[1,0,0,0,5],[1,1,0,0,-5]];perimeter=orthogonalPerimeter;outlineConnect=0;targetShapes=umlLifeline;portConstraint=eastwest;newEdgeStyle={&quot;curved&quot;:0,&quot;rounded&quot;:0};" parent="R0Ea8_HKn-mQd7oRBbt7-20" vertex="1">
          <mxGeometry x="45" y="80" width="10" height="280" as="geometry" />
        </mxCell>
        <mxCell id="R0Ea8_HKn-mQd7oRBbt7-22" value="" style="endArrow=classic;html=1;rounded=0;" parent="1" edge="1">
          <mxGeometry width="50" height="50" relative="1" as="geometry">
            <mxPoint x="275" y="340" as="sourcePoint" />
            <mxPoint x="399" y="340" as="targetPoint" />
          </mxGeometry>
        </mxCell>
        <mxCell id="R0Ea8_HKn-mQd7oRBbt7-23" value="switchPage()" style="text;html=1;strokeColor=none;fillColor=none;align=center;verticalAlign=middle;whiteSpace=wrap;rounded=0;" parent="1" vertex="1">
          <mxGeometry x="307" y="316" width="60" height="30" as="geometry" />
        </mxCell>
        <mxCell id="R0Ea8_HKn-mQd7oRBbt7-24" value="" style="endArrow=classic;html=1;rounded=0;" parent="1" edge="1">
          <mxGeometry width="50" height="50" relative="1" as="geometry">
            <mxPoint x="416.00333333333333" y="390" as="sourcePoint" />
            <mxPoint x="622.42" y="390" as="targetPoint" />
          </mxGeometry>
        </mxCell>
        <mxCell id="R0Ea8_HKn-mQd7oRBbt7-25" value="checkAvaiability(Ticket)" style="text;html=1;strokeColor=none;fillColor=none;align=center;verticalAlign=middle;whiteSpace=wrap;rounded=0;" parent="1" vertex="1">
          <mxGeometry x="488" y="366" width="60" height="30" as="geometry" />
        </mxCell>
        <mxCell id="R0Ea8_HKn-mQd7oRBbt7-26" value="" style="endArrow=classic;html=1;rounded=0;" parent="1" edge="1">
          <mxGeometry width="50" height="50" relative="1" as="geometry">
            <mxPoint x="417" y="472" as="sourcePoint" />
            <mxPoint x="627" y="472" as="targetPoint" />
          </mxGeometry>
        </mxCell>
        <mxCell id="R0Ea8_HKn-mQd7oRBbt7-27" value="getUnitaryPrice()" style="edgeLabel;html=1;align=center;verticalAlign=middle;resizable=0;points=[];" parent="R0Ea8_HKn-mQd7oRBbt7-26" vertex="1" connectable="0">
          <mxGeometry x="-0.1813" y="1" relative="1" as="geometry">
            <mxPoint x="17" y="-8" as="offset" />
          </mxGeometry>
        </mxCell>
        <mxCell id="R0Ea8_HKn-mQd7oRBbt7-28" value="" style="endArrow=open;dashed=1;html=1;dashPattern=1 3;strokeWidth=2;rounded=0;endFill=0;" parent="1" edge="1">
          <mxGeometry width="50" height="50" relative="1" as="geometry">
            <mxPoint x="624" y="530" as="sourcePoint" />
            <mxPoint x="420" y="530" as="targetPoint" />
          </mxGeometry>
        </mxCell>
        <mxCell id="R0Ea8_HKn-mQd7oRBbt7-29" value="return" style="edgeLabel;html=1;align=center;verticalAlign=middle;resizable=0;points=[];" parent="R0Ea8_HKn-mQd7oRBbt7-28" vertex="1" connectable="0">
          <mxGeometry x="0.4317" y="-1" relative="1" as="geometry">
            <mxPoint x="42" y="-9" as="offset" />
          </mxGeometry>
        </mxCell>
        <mxCell id="R0Ea8_HKn-mQd7oRBbt7-48" value="UC2: Processo di vendita" style="shape=note;whiteSpace=wrap;html=1;size=7;verticalAlign=top;align=left;spacingTop=-6;rounded=0;shadow=0;comic=0;labelBackgroundColor=none;strokeWidth=1;fontFamily=Verdana;fontSize=12;fillColor=#fff2cc;strokeColor=#d6b656;" parent="1" vertex="1">
          <mxGeometry x="-80" y="123" width="130" height="35" as="geometry" />
        </mxCell>
        <mxCell id="R0Ea8_HKn-mQd7oRBbt7-49" value="" style="endArrow=open;dashed=1;html=1;dashPattern=1 3;strokeWidth=2;rounded=0;endFill=0;entryX=0.007;entryY=0.448;entryDx=0;entryDy=0;entryPerimeter=0;" parent="1" edge="1">
          <mxGeometry width="50" height="50" relative="1" as="geometry">
            <mxPoint x="625" y="451.884" as="sourcePoint" />
            <mxPoint x="419.7449999999999" y="451.884" as="targetPoint" />
          </mxGeometry>
        </mxCell>
        <mxCell id="R0Ea8_HKn-mQd7oRBbt7-50" value="return" style="edgeLabel;html=1;align=center;verticalAlign=middle;resizable=0;points=[];" parent="R0Ea8_HKn-mQd7oRBbt7-49" vertex="1" connectable="0">
          <mxGeometry x="-0.1484" relative="1" as="geometry">
            <mxPoint x="-20" y="-10" as="offset" />
          </mxGeometry>
        </mxCell>
      </root>
    </mxGraphModel>
  </diagram>
</mxfile>
